<mxfile host="65bd71144e" pages="3">
    <diagram id="pyeY230ZBR-7Wyc-Nqf3" name="Goal Architecture">
        <mxGraphModel dx="842" dy="924" grid="1" gridSize="10" guides="1" tooltips="1" connect="1" arrows="1" fold="1" page="1" pageScale="1" pageWidth="827" pageHeight="1169" math="0" shadow="0">
            <root>
                <mxCell id="gHm7drAUSJH3i6NlRPnt-0"/>
                <mxCell id="gHm7drAUSJH3i6NlRPnt-1" parent="gHm7drAUSJH3i6NlRPnt-0"/>
                <mxCell id="p_-Jq0jlRIrJkgJ9OGro-18" value="Region" style="shape=mxgraph.ibm.box;prType=region;fontStyle=0;verticalAlign=top;align=left;spacingLeft=32;spacingTop=4;fillColor=none;rounded=0;whiteSpace=wrap;html=1;strokeColor=#919191;strokeWidth=2;dashed=0;container=1;spacing=-4;collapsible=0;expand=0;recursiveResize=0;fontSize=14;" parent="gHm7drAUSJH3i6NlRPnt-1" vertex="1">
                    <mxGeometry x="80" y="80" width="960" height="760" as="geometry"/>
                </mxCell>
                <mxCell id="kk-LSiFSzGHYoCt07XOY-0" value="" style="rounded=0;whiteSpace=wrap;html=1;labelBackgroundColor=#ffffff;fontSize=14;fillColor=#ffe6cc;strokeColor=none;" parent="p_-Jq0jlRIrJkgJ9OGro-18" vertex="1">
                    <mxGeometry x="38" y="140" width="622" height="300" as="geometry"/>
                </mxCell>
                <mxCell id="VMtMWlUubiW7kvZXqaIf-51" value="" style="rounded=0;whiteSpace=wrap;html=1;labelBackgroundColor=#ffffff;fontSize=16;fillColor=#dae8fc;strokeColor=none;" parent="p_-Jq0jlRIrJkgJ9OGro-18" vertex="1">
                    <mxGeometry x="230" y="470" width="290" height="280" as="geometry"/>
                </mxCell>
                <mxCell id="VMtMWlUubiW7kvZXqaIf-49" value="" style="rounded=0;whiteSpace=wrap;html=1;labelBackgroundColor=#ffffff;fontSize=16;fillColor=#d5e8d4;strokeColor=none;" parent="p_-Jq0jlRIrJkgJ9OGro-18" vertex="1">
                    <mxGeometry x="680" y="140" width="270" height="300" as="geometry"/>
                </mxCell>
                <mxCell id="p_-Jq0jlRIrJkgJ9OGro-19" value="VPC" style="points=[[0,0],[0.25,0],[0.5,0],[0.75,0],[1,0],[1,0.25],[1,0.5],[1,0.75],[1,1],[0.75,1],[0.5,1],[0.25,1],[0,1],[0,0.75],[0,0.5],[0,0.25]];outlineConnect=0;gradientColor=none;html=1;whiteSpace=wrap;fontSize=12;fontStyle=0;shape=mxgraph.aws4.group;grIcon=mxgraph.aws4.group_vpc;strokeColor=#248814;fillColor=none;verticalAlign=top;align=left;spacingLeft=30;fontColor=#AAB7B8;dashed=0;" parent="p_-Jq0jlRIrJkgJ9OGro-18" vertex="1">
                    <mxGeometry x="19" y="30" width="650" height="430" as="geometry"/>
                </mxCell>
                <mxCell id="VMtMWlUubiW7kvZXqaIf-41" style="edgeStyle=orthogonalEdgeStyle;rounded=0;orthogonalLoop=1;jettySize=auto;html=1;fontSize=16;startArrow=none;startFill=0;endArrow=classic;endFill=1;" parent="p_-Jq0jlRIrJkgJ9OGro-18" source="kk-LSiFSzGHYoCt07XOY-0" target="VMtMWlUubiW7kvZXqaIf-39" edge="1">
                    <mxGeometry relative="1" as="geometry"/>
                </mxCell>
                <mxCell id="VMtMWlUubiW7kvZXqaIf-45" style="edgeStyle=orthogonalEdgeStyle;rounded=0;orthogonalLoop=1;jettySize=auto;html=1;fontSize=16;startArrow=none;startFill=0;endArrow=classic;endFill=1;strokeColor=#000000;" parent="p_-Jq0jlRIrJkgJ9OGro-18" source="kk-LSiFSzGHYoCt07XOY-0" target="VMtMWlUubiW7kvZXqaIf-44" edge="1">
                    <mxGeometry relative="1" as="geometry"/>
                </mxCell>
                <mxCell id="p_-Jq0jlRIrJkgJ9OGro-20" value="&lt;span style=&quot;&quot;&gt;/assets&lt;/span&gt;" style="points=[[0,0,0],[0.25,0,0],[0.5,0,0],[0.75,0,0],[1,0,0],[0,1,0],[0.25,1,0],[0.5,1,0],[0.75,1,0],[1,1,0],[0,0.25,0],[0,0.5,0],[0,0.75,0],[1,0.25,0],[1,0.5,0],[1,0.75,0]];outlineConnect=0;fontColor=#232F3E;gradientColor=#F78E04;gradientDirection=north;fillColor=#D05C17;strokeColor=#ffffff;dashed=0;verticalLabelPosition=bottom;verticalAlign=top;align=center;html=1;fontSize=12;fontStyle=0;aspect=fixed;shape=mxgraph.aws4.resourceIcon;resIcon=mxgraph.aws4.lambda;labelBackgroundColor=#ffffff;" parent="p_-Jq0jlRIrJkgJ9OGro-18" vertex="1">
                    <mxGeometry x="50" y="171" width="78" height="78" as="geometry"/>
                </mxCell>
                <mxCell id="faQUMJwkZ8H9z8r8hcas-0" value="/templates" style="points=[[0,0,0],[0.25,0,0],[0.5,0,0],[0.75,0,0],[1,0,0],[0,1,0],[0.25,1,0],[0.5,1,0],[0.75,1,0],[1,1,0],[0,0.25,0],[0,0.5,0],[0,0.75,0],[1,0.25,0],[1,0.5,0],[1,0.75,0]];outlineConnect=0;fontColor=#232F3E;gradientColor=#F78E04;gradientDirection=north;fillColor=#D05C17;strokeColor=#ffffff;dashed=0;verticalLabelPosition=bottom;verticalAlign=top;align=center;html=1;fontSize=12;fontStyle=0;aspect=fixed;shape=mxgraph.aws4.resourceIcon;resIcon=mxgraph.aws4.lambda;labelBackgroundColor=#ffffff;" parent="p_-Jq0jlRIrJkgJ9OGro-18" vertex="1">
                    <mxGeometry x="380" y="171" width="78" height="78" as="geometry"/>
                </mxCell>
                <mxCell id="faQUMJwkZ8H9z8r8hcas-4" style="edgeStyle=orthogonalEdgeStyle;rounded=0;orthogonalLoop=1;jettySize=auto;html=1;fontSize=14;startArrow=none;startFill=0;endArrow=classic;endFill=1;" parent="p_-Jq0jlRIrJkgJ9OGro-18" source="faQUMJwkZ8H9z8r8hcas-1" target="p_-Jq0jlRIrJkgJ9OGro-20" edge="1">
                    <mxGeometry relative="1" as="geometry"/>
                </mxCell>
                <mxCell id="faQUMJwkZ8H9z8r8hcas-14" value="GET" style="edgeLabel;html=1;align=center;verticalAlign=middle;resizable=0;points=[];fontSize=14;" parent="faQUMJwkZ8H9z8r8hcas-4" vertex="1" connectable="0">
                    <mxGeometry x="0.3968" y="-1" relative="1" as="geometry">
                        <mxPoint as="offset"/>
                    </mxGeometry>
                </mxCell>
                <mxCell id="faQUMJwkZ8H9z8r8hcas-7" style="edgeStyle=orthogonalEdgeStyle;rounded=0;orthogonalLoop=1;jettySize=auto;html=1;entryX=0.5;entryY=1;entryDx=0;entryDy=0;entryPerimeter=0;fontSize=14;startArrow=none;startFill=0;endArrow=classic;endFill=1;strokeColor=#000000;" parent="p_-Jq0jlRIrJkgJ9OGro-18" source="faQUMJwkZ8H9z8r8hcas-1" target="faQUMJwkZ8H9z8r8hcas-0" edge="1">
                    <mxGeometry relative="1" as="geometry">
                        <Array as="points">
                            <mxPoint x="419" y="329"/>
                        </Array>
                    </mxGeometry>
                </mxCell>
                <mxCell id="faQUMJwkZ8H9z8r8hcas-12" value="GET" style="edgeLabel;html=1;align=center;verticalAlign=middle;resizable=0;points=[];fontSize=14;" parent="faQUMJwkZ8H9z8r8hcas-7" vertex="1" connectable="0">
                    <mxGeometry x="-0.0918" y="-2" relative="1" as="geometry">
                        <mxPoint as="offset"/>
                    </mxGeometry>
                </mxCell>
                <mxCell id="faQUMJwkZ8H9z8r8hcas-8" style="edgeStyle=orthogonalEdgeStyle;rounded=0;orthogonalLoop=1;jettySize=auto;html=1;fontSize=14;startArrow=none;startFill=0;endArrow=classic;endFill=1;strokeColor=#000000;" parent="p_-Jq0jlRIrJkgJ9OGro-18" source="faQUMJwkZ8H9z8r8hcas-1" target="faQUMJwkZ8H9z8r8hcas-5" edge="1">
                    <mxGeometry relative="1" as="geometry"/>
                </mxCell>
                <mxCell id="faQUMJwkZ8H9z8r8hcas-11" value="POST" style="edgeLabel;html=1;align=center;verticalAlign=middle;resizable=0;points=[];fontSize=14;" parent="faQUMJwkZ8H9z8r8hcas-8" vertex="1" connectable="0">
                    <mxGeometry x="0.2162" relative="1" as="geometry">
                        <mxPoint as="offset"/>
                    </mxGeometry>
                </mxCell>
                <mxCell id="faQUMJwkZ8H9z8r8hcas-9" style="edgeStyle=orthogonalEdgeStyle;rounded=0;orthogonalLoop=1;jettySize=auto;html=1;fontSize=14;startArrow=none;startFill=0;endArrow=classic;endFill=1;strokeColor=#000000;" parent="p_-Jq0jlRIrJkgJ9OGro-18" source="faQUMJwkZ8H9z8r8hcas-1" target="faQUMJwkZ8H9z8r8hcas-6" edge="1">
                    <mxGeometry relative="1" as="geometry"/>
                </mxCell>
                <mxCell id="faQUMJwkZ8H9z8r8hcas-13" value="DELETE" style="edgeLabel;html=1;align=center;verticalAlign=middle;resizable=0;points=[];fontSize=14;" parent="faQUMJwkZ8H9z8r8hcas-9" vertex="1" connectable="0">
                    <mxGeometry x="0.4646" y="-1" relative="1" as="geometry">
                        <mxPoint as="offset"/>
                    </mxGeometry>
                </mxCell>
                <mxCell id="faQUMJwkZ8H9z8r8hcas-16" style="edgeStyle=orthogonalEdgeStyle;rounded=0;orthogonalLoop=1;jettySize=auto;html=1;entryX=0.5;entryY=1;entryDx=0;entryDy=0;entryPerimeter=0;fontSize=14;startArrow=none;startFill=0;endArrow=classic;endFill=1;strokeColor=#000000;" parent="p_-Jq0jlRIrJkgJ9OGro-18" source="faQUMJwkZ8H9z8r8hcas-1" target="faQUMJwkZ8H9z8r8hcas-3" edge="1">
                    <mxGeometry relative="1" as="geometry">
                        <Array as="points">
                            <mxPoint x="317" y="329"/>
                        </Array>
                    </mxGeometry>
                </mxCell>
                <mxCell id="faQUMJwkZ8H9z8r8hcas-18" value="GET" style="edgeLabel;html=1;align=center;verticalAlign=middle;resizable=0;points=[];fontSize=14;" parent="faQUMJwkZ8H9z8r8hcas-16" vertex="1" connectable="0">
                    <mxGeometry x="-0.1034" relative="1" as="geometry">
                        <mxPoint as="offset"/>
                    </mxGeometry>
                </mxCell>
                <mxCell id="faQUMJwkZ8H9z8r8hcas-1" value="" style="points=[[0,0,0],[0.25,0,0],[0.5,0,0],[0.75,0,0],[1,0,0],[0,1,0],[0.25,1,0],[0.5,1,0],[0.75,1,0],[1,1,0],[0,0.25,0],[0,0.5,0],[0,0.75,0],[1,0.25,0],[1,0.5,0],[1,0.75,0]];outlineConnect=0;fontColor=#232F3E;gradientColor=#F34482;gradientDirection=north;fillColor=#BC1356;strokeColor=#ffffff;dashed=0;verticalLabelPosition=bottom;verticalAlign=top;align=center;html=1;fontSize=12;fontStyle=0;aspect=fixed;shape=mxgraph.aws4.resourceIcon;resIcon=mxgraph.aws4.api_gateway;" parent="p_-Jq0jlRIrJkgJ9OGro-18" vertex="1">
                    <mxGeometry x="330" y="340" width="78" height="78" as="geometry"/>
                </mxCell>
                <mxCell id="faQUMJwkZ8H9z8r8hcas-3" value="/assets/search" style="points=[[0,0,0],[0.25,0,0],[0.5,0,0],[0.75,0,0],[1,0,0],[0,1,0],[0.25,1,0],[0.5,1,0],[0.75,1,0],[1,1,0],[0,0.25,0],[0,0.5,0],[0,0.75,0],[1,0.25,0],[1,0.5,0],[1,0.75,0]];outlineConnect=0;fontColor=#232F3E;gradientColor=#F78E04;gradientDirection=north;fillColor=#D05C17;strokeColor=#ffffff;dashed=0;verticalLabelPosition=bottom;verticalAlign=top;align=center;html=1;fontSize=12;fontStyle=0;aspect=fixed;shape=mxgraph.aws4.resourceIcon;resIcon=mxgraph.aws4.lambda;labelBackgroundColor=#ffffff;" parent="p_-Jq0jlRIrJkgJ9OGro-18" vertex="1">
                    <mxGeometry x="270" y="171" width="78" height="78" as="geometry"/>
                </mxCell>
                <mxCell id="faQUMJwkZ8H9z8r8hcas-5" value="/templates" style="points=[[0,0,0],[0.25,0,0],[0.5,0,0],[0.75,0,0],[1,0,0],[0,1,0],[0.25,1,0],[0.5,1,0],[0.75,1,0],[1,1,0],[0,0.25,0],[0,0.5,0],[0,0.75,0],[1,0.25,0],[1,0.5,0],[1,0.75,0]];outlineConnect=0;fontColor=#232F3E;gradientColor=#F78E04;gradientDirection=north;fillColor=#D05C17;strokeColor=#ffffff;dashed=0;verticalLabelPosition=bottom;verticalAlign=top;align=center;html=1;fontSize=12;fontStyle=0;aspect=fixed;shape=mxgraph.aws4.resourceIcon;resIcon=mxgraph.aws4.lambda;labelBackgroundColor=#ffffff;" parent="p_-Jq0jlRIrJkgJ9OGro-18" vertex="1">
                    <mxGeometry x="480" y="171" width="78" height="78" as="geometry"/>
                </mxCell>
                <mxCell id="faQUMJwkZ8H9z8r8hcas-6" value="/templates" style="points=[[0,0,0],[0.25,0,0],[0.5,0,0],[0.75,0,0],[1,0,0],[0,1,0],[0.25,1,0],[0.5,1,0],[0.75,1,0],[1,1,0],[0,0.25,0],[0,0.5,0],[0,0.75,0],[1,0.25,0],[1,0.5,0],[1,0.75,0]];outlineConnect=0;fontColor=#232F3E;gradientColor=#F78E04;gradientDirection=north;fillColor=#D05C17;strokeColor=#ffffff;dashed=0;verticalLabelPosition=bottom;verticalAlign=top;align=center;html=1;fontSize=12;fontStyle=0;aspect=fixed;shape=mxgraph.aws4.resourceIcon;resIcon=mxgraph.aws4.lambda;labelBackgroundColor=#ffffff;" parent="p_-Jq0jlRIrJkgJ9OGro-18" vertex="1">
                    <mxGeometry x="580" y="171" width="78" height="78" as="geometry"/>
                </mxCell>
                <mxCell id="faQUMJwkZ8H9z8r8hcas-21" style="edgeStyle=orthogonalEdgeStyle;rounded=0;orthogonalLoop=1;jettySize=auto;html=1;entryX=0.5;entryY=0;entryDx=0;entryDy=0;entryPerimeter=0;fontSize=14;startArrow=none;startFill=0;endArrow=classic;endFill=1;strokeColor=#000000;" parent="p_-Jq0jlRIrJkgJ9OGro-18" source="faQUMJwkZ8H9z8r8hcas-19" target="p_-Jq0jlRIrJkgJ9OGro-20" edge="1">
                    <mxGeometry relative="1" as="geometry"/>
                </mxCell>
                <mxCell id="faQUMJwkZ8H9z8r8hcas-23" style="edgeStyle=orthogonalEdgeStyle;rounded=0;orthogonalLoop=1;jettySize=auto;html=1;entryX=0.5;entryY=0;entryDx=0;entryDy=0;entryPerimeter=0;fontSize=14;startArrow=none;startFill=0;endArrow=classic;endFill=1;strokeColor=#000000;" parent="p_-Jq0jlRIrJkgJ9OGro-18" source="faQUMJwkZ8H9z8r8hcas-19" target="faQUMJwkZ8H9z8r8hcas-3" edge="1">
                    <mxGeometry relative="1" as="geometry"/>
                </mxCell>
                <mxCell id="faQUMJwkZ8H9z8r8hcas-24" style="edgeStyle=orthogonalEdgeStyle;rounded=0;orthogonalLoop=1;jettySize=auto;html=1;fontSize=14;startArrow=none;startFill=0;endArrow=classic;endFill=1;strokeColor=#000000;" parent="p_-Jq0jlRIrJkgJ9OGro-18" source="faQUMJwkZ8H9z8r8hcas-19" target="faQUMJwkZ8H9z8r8hcas-0" edge="1">
                    <mxGeometry relative="1" as="geometry"/>
                </mxCell>
                <mxCell id="faQUMJwkZ8H9z8r8hcas-25" style="edgeStyle=orthogonalEdgeStyle;rounded=0;orthogonalLoop=1;jettySize=auto;html=1;fontSize=14;startArrow=none;startFill=0;endArrow=classic;endFill=1;strokeColor=#000000;" parent="p_-Jq0jlRIrJkgJ9OGro-18" source="faQUMJwkZ8H9z8r8hcas-19" target="faQUMJwkZ8H9z8r8hcas-5" edge="1">
                    <mxGeometry relative="1" as="geometry"/>
                </mxCell>
                <mxCell id="faQUMJwkZ8H9z8r8hcas-27" style="edgeStyle=orthogonalEdgeStyle;rounded=0;orthogonalLoop=1;jettySize=auto;html=1;fontSize=14;startArrow=none;startFill=0;endArrow=classic;endFill=1;strokeColor=#000000;" parent="p_-Jq0jlRIrJkgJ9OGro-18" source="faQUMJwkZ8H9z8r8hcas-19" target="faQUMJwkZ8H9z8r8hcas-6" edge="1">
                    <mxGeometry relative="1" as="geometry"/>
                </mxCell>
                <mxCell id="faQUMJwkZ8H9z8r8hcas-19" value="" style="points=[[0,0,0],[0.25,0,0],[0.5,0,0],[0.75,0,0],[1,0,0],[0,1,0],[0.25,1,0],[0.5,1,0],[0.75,1,0],[1,1,0],[0,0.25,0],[0,0.5,0],[0,0.75,0],[1,0.25,0],[1,0.5,0],[1,0.75,0]];outlineConnect=0;fontColor=#232F3E;gradientColor=#4D72F3;gradientDirection=north;fillColor=#3334B9;strokeColor=#ffffff;dashed=0;verticalLabelPosition=bottom;verticalAlign=top;align=center;html=1;fontSize=12;fontStyle=0;aspect=fixed;shape=mxgraph.aws4.resourceIcon;resIcon=mxgraph.aws4.xray;" parent="p_-Jq0jlRIrJkgJ9OGro-18" vertex="1">
                    <mxGeometry x="330" y="50" width="78" height="78" as="geometry"/>
                </mxCell>
                <mxCell id="faQUMJwkZ8H9z8r8hcas-30" value="" style="points=[[0,0,0],[0.25,0,0],[0.5,0,0],[0.75,0,0],[1,0,0],[0,1,0],[0.25,1,0],[0.5,1,0],[0.75,1,0],[1,1,0],[0,0.25,0],[0,0.5,0],[0,0.75,0],[1,0.25,0],[1,0.5,0],[1,0.75,0]];points=[[0,0,0],[0.25,0,0],[0.5,0,0],[0.75,0,0],[1,0,0],[0,1,0],[0.25,1,0],[0.5,1,0],[0.75,1,0],[1,1,0],[0,0.25,0],[0,0.5,0],[0,0.75,0],[1,0.25,0],[1,0.5,0],[1,0.75,0]];outlineConnect=0;fontColor=#232F3E;gradientColor=#F34482;gradientDirection=north;fillColor=#BC1356;strokeColor=#ffffff;dashed=0;verticalLabelPosition=bottom;verticalAlign=top;align=center;html=1;fontSize=12;fontStyle=0;aspect=fixed;shape=mxgraph.aws4.resourceIcon;resIcon=mxgraph.aws4.cloudwatch_2;labelBackgroundColor=#ffffff;" parent="p_-Jq0jlRIrJkgJ9OGro-18" vertex="1">
                    <mxGeometry x="710" y="30" width="78" height="78" as="geometry"/>
                </mxCell>
                <mxCell id="VMtMWlUubiW7kvZXqaIf-38" style="edgeStyle=orthogonalEdgeStyle;rounded=0;orthogonalLoop=1;jettySize=auto;html=1;entryX=0.5;entryY=1;entryDx=0;entryDy=0;entryPerimeter=0;fontSize=16;startArrow=none;startFill=0;endArrow=classic;endFill=1;strokeColor=#000000;" parent="p_-Jq0jlRIrJkgJ9OGro-18" source="VMtMWlUubiW7kvZXqaIf-4" target="faQUMJwkZ8H9z8r8hcas-1" edge="1">
                    <mxGeometry relative="1" as="geometry"/>
                </mxCell>
                <mxCell id="VMtMWlUubiW7kvZXqaIf-4" value="" style="outlineConnect=0;fontColor=#232F3E;gradientColor=none;fillColor=#5A30B5;strokeColor=none;dashed=0;verticalLabelPosition=bottom;verticalAlign=top;align=center;html=1;fontSize=12;fontStyle=0;aspect=fixed;pointerEvents=1;shape=mxgraph.aws4.endpoints;labelBackgroundColor=#ffffff;" parent="p_-Jq0jlRIrJkgJ9OGro-18" vertex="1">
                    <mxGeometry x="330" y="480" width="78" height="78" as="geometry"/>
                </mxCell>
                <mxCell id="VMtMWlUubiW7kvZXqaIf-37" style="edgeStyle=orthogonalEdgeStyle;rounded=0;orthogonalLoop=1;jettySize=auto;html=1;fontSize=16;startArrow=none;startFill=0;endArrow=classic;endFill=1;" parent="p_-Jq0jlRIrJkgJ9OGro-18" source="VMtMWlUubiW7kvZXqaIf-1" target="VMtMWlUubiW7kvZXqaIf-4" edge="1">
                    <mxGeometry relative="1" as="geometry"/>
                </mxCell>
                <mxCell id="VMtMWlUubiW7kvZXqaIf-43" style="edgeStyle=orthogonalEdgeStyle;rounded=0;orthogonalLoop=1;jettySize=auto;html=1;entryX=0;entryY=0.5;entryDx=0;entryDy=0;entryPerimeter=0;fontSize=16;startArrow=none;startFill=0;endArrow=classic;endFill=1;" parent="p_-Jq0jlRIrJkgJ9OGro-18" source="VMtMWlUubiW7kvZXqaIf-39" target="VMtMWlUubiW7kvZXqaIf-40" edge="1">
                    <mxGeometry relative="1" as="geometry"/>
                </mxCell>
                <mxCell id="VMtMWlUubiW7kvZXqaIf-39" value="" style="outlineConnect=0;fontColor=#232F3E;gradientColor=none;fillColor=#5A30B5;strokeColor=none;dashed=0;verticalLabelPosition=bottom;verticalAlign=top;align=center;html=1;fontSize=12;fontStyle=0;aspect=fixed;pointerEvents=1;shape=mxgraph.aws4.endpoints;labelBackgroundColor=#ffffff;" parent="p_-Jq0jlRIrJkgJ9OGro-18" vertex="1">
                    <mxGeometry x="710" y="171" width="78" height="78" as="geometry"/>
                </mxCell>
                <mxCell id="VMtMWlUubiW7kvZXqaIf-40" value="" style="points=[[0,0,0],[0.25,0,0],[0.5,0,0],[0.75,0,0],[1,0,0],[0,1,0],[0.25,1,0],[0.5,1,0],[0.75,1,0],[1,1,0],[0,0.25,0],[0,0.5,0],[0,0.75,0],[1,0.25,0],[1,0.5,0],[1,0.75,0]];outlineConnect=0;fontColor=#232F3E;gradientColor=#60A337;gradientDirection=north;fillColor=#277116;strokeColor=#ffffff;dashed=0;verticalLabelPosition=bottom;verticalAlign=top;align=center;html=1;fontSize=12;fontStyle=0;aspect=fixed;shape=mxgraph.aws4.resourceIcon;resIcon=mxgraph.aws4.s3;labelBackgroundColor=#ffffff;" parent="p_-Jq0jlRIrJkgJ9OGro-18" vertex="1">
                    <mxGeometry x="850" y="171" width="78" height="78" as="geometry"/>
                </mxCell>
                <mxCell id="VMtMWlUubiW7kvZXqaIf-47" style="edgeStyle=orthogonalEdgeStyle;rounded=0;orthogonalLoop=1;jettySize=auto;html=1;entryX=0;entryY=0.5;entryDx=0;entryDy=0;entryPerimeter=0;fontSize=16;startArrow=none;startFill=0;endArrow=classic;endFill=1;" parent="p_-Jq0jlRIrJkgJ9OGro-18" source="VMtMWlUubiW7kvZXqaIf-44" target="VMtMWlUubiW7kvZXqaIf-46" edge="1">
                    <mxGeometry relative="1" as="geometry"/>
                </mxCell>
                <mxCell id="VMtMWlUubiW7kvZXqaIf-44" value="" style="outlineConnect=0;fontColor=#232F3E;gradientColor=none;fillColor=#5A30B5;strokeColor=none;dashed=0;verticalLabelPosition=bottom;verticalAlign=top;align=center;html=1;fontSize=12;fontStyle=0;aspect=fixed;pointerEvents=1;shape=mxgraph.aws4.endpoints;labelBackgroundColor=#ffffff;" parent="p_-Jq0jlRIrJkgJ9OGro-18" vertex="1">
                    <mxGeometry x="710" y="330" width="78" height="78" as="geometry"/>
                </mxCell>
                <mxCell id="VMtMWlUubiW7kvZXqaIf-46" value="" style="points=[[0,0,0],[0.25,0,0],[0.5,0,0],[0.75,0,0],[1,0,0],[0,1,0],[0.25,1,0],[0.5,1,0],[0.75,1,0],[1,1,0],[0,0.25,0],[0,0.5,0],[0,0.75,0],[1,0.25,0],[1,0.5,0],[1,0.75,0]];outlineConnect=0;fontColor=#232F3E;gradientColor=#4D72F3;gradientDirection=north;fillColor=#3334B9;strokeColor=#ffffff;dashed=0;verticalLabelPosition=bottom;verticalAlign=top;align=center;html=1;fontSize=12;fontStyle=0;aspect=fixed;shape=mxgraph.aws4.resourceIcon;resIcon=mxgraph.aws4.dynamodb;labelBackgroundColor=#ffffff;" parent="p_-Jq0jlRIrJkgJ9OGro-18" vertex="1">
                    <mxGeometry x="850" y="330" width="78" height="78" as="geometry"/>
                </mxCell>
                <mxCell id="VMtMWlUubiW7kvZXqaIf-0" value="" style="group" parent="p_-Jq0jlRIrJkgJ9OGro-18" vertex="1" connectable="0">
                    <mxGeometry x="306.75" y="610" width="124.5" height="134.5" as="geometry"/>
                </mxCell>
                <mxCell id="VMtMWlUubiW7kvZXqaIf-1" value="" style="points=[[0,0,0],[0.25,0,0],[0.5,0,0],[0.75,0,0],[1,0,0],[0,1,0],[0.25,1,0],[0.5,1,0],[0.75,1,0],[1,1,0],[0,0.25,0],[0,0.5,0],[0,0.75,0],[1,0.25,0],[1,0.5,0],[1,0.75,0]];outlineConnect=0;fontColor=#232F3E;gradientColor=#60A337;gradientDirection=north;fillColor=#277116;strokeColor=#ffffff;dashed=0;verticalLabelPosition=bottom;verticalAlign=top;align=center;html=1;fontSize=12;fontStyle=0;aspect=fixed;shape=mxgraph.aws4.resourceIcon;resIcon=mxgraph.aws4.s3;" parent="VMtMWlUubiW7kvZXqaIf-0" vertex="1">
                    <mxGeometry width="124.5" height="124.5" as="geometry"/>
                </mxCell>
                <mxCell id="VMtMWlUubiW7kvZXqaIf-2" value="" style="shape=image;html=1;verticalAlign=top;verticalLabelPosition=bottom;labelBackgroundColor=#ffffff;imageAspect=0;aspect=fixed;image=https://cdn0.iconfinder.com/data/icons/logos-brands-in-colors/128/react_color-128.png" parent="VMtMWlUubiW7kvZXqaIf-0" vertex="1">
                    <mxGeometry x="33.422818791946305" y="64.09060402684564" width="53.47651006711409" height="53.47651006711409" as="geometry"/>
                </mxCell>
                <mxCell id="VMtMWlUubiW7kvZXqaIf-3" value="" style="points=[[0,0,0],[0.25,0,0],[0.5,0,0],[0.75,0,0],[1,0,0],[0,1,0],[0.25,1,0],[0.5,1,0],[0.75,1,0],[1,1,0],[0,0.25,0],[0,0.5,0],[0,0.75,0],[1,0.25,0],[1,0.5,0],[1,0.75,0]];outlineConnect=0;fontColor=#232F3E;gradientColor=#945DF2;gradientDirection=north;fillColor=#5A30B5;strokeColor=#ffffff;dashed=0;verticalLabelPosition=bottom;verticalAlign=top;align=center;html=1;fontSize=12;fontStyle=0;aspect=fixed;shape=mxgraph.aws4.resourceIcon;resIcon=mxgraph.aws4.cloudfront;" parent="p_-Jq0jlRIrJkgJ9OGro-18" vertex="1">
                    <mxGeometry x="408" y="558" width="78" height="78" as="geometry"/>
                </mxCell>
                <mxCell id="18tmZ6bNWHhbC2IRPcdX-1" style="edgeStyle=orthogonalEdgeStyle;rounded=0;orthogonalLoop=1;jettySize=auto;html=1;entryX=0.5;entryY=1;entryDx=0;entryDy=0;entryPerimeter=0;strokeColor=#000000;" parent="p_-Jq0jlRIrJkgJ9OGro-18" source="faQUMJwkZ8H9z8r8hcas-1" target="p_-Jq0jlRIrJkgJ9OGro-20" edge="1">
                    <mxGeometry relative="1" as="geometry"/>
                </mxCell>
                <mxCell id="18tmZ6bNWHhbC2IRPcdX-2" value="&lt;font style=&quot;font-size: 18px&quot;&gt;&lt;b&gt;1&lt;/b&gt;&lt;/font&gt;" style="ellipse;whiteSpace=wrap;html=1;aspect=fixed;strokeWidth=2;fontFamily=Tahoma;spacingBottom=4;spacingRight=2;strokeColor=#d3d3d3;" parent="p_-Jq0jlRIrJkgJ9OGro-18" vertex="1">
                    <mxGeometry x="230" y="470" width="40" height="40" as="geometry"/>
                </mxCell>
                <mxCell id="18tmZ6bNWHhbC2IRPcdX-5" value="&lt;font style=&quot;font-size: 18px&quot;&gt;&lt;b&gt;2&lt;/b&gt;&lt;/font&gt;" style="ellipse;whiteSpace=wrap;html=1;aspect=fixed;strokeWidth=2;fontFamily=Tahoma;spacingBottom=4;spacingRight=2;strokeColor=#d3d3d3;" parent="p_-Jq0jlRIrJkgJ9OGro-18" vertex="1">
                    <mxGeometry x="30" y="131" width="40" height="40" as="geometry"/>
                </mxCell>
                <mxCell id="18tmZ6bNWHhbC2IRPcdX-7" value="&lt;font style=&quot;font-size: 18px&quot;&gt;&lt;b&gt;3&lt;/b&gt;&lt;/font&gt;" style="ellipse;whiteSpace=wrap;html=1;aspect=fixed;strokeWidth=2;fontFamily=Tahoma;spacingBottom=4;spacingRight=2;strokeColor=#d3d3d3;" parent="p_-Jq0jlRIrJkgJ9OGro-18" vertex="1">
                    <mxGeometry x="680" y="140" width="40" height="40" as="geometry"/>
                </mxCell>
                <mxCell id="18tmZ6bNWHhbC2IRPcdX-9" value="&lt;font style=&quot;font-size: 18px&quot;&gt;&lt;b&gt;4&lt;/b&gt;&lt;/font&gt;" style="ellipse;whiteSpace=wrap;html=1;aspect=fixed;strokeWidth=2;fontFamily=Tahoma;spacingBottom=4;spacingRight=2;strokeColor=#d3d3d3;" parent="p_-Jq0jlRIrJkgJ9OGro-18" vertex="1">
                    <mxGeometry x="308" y="30" width="40" height="40" as="geometry"/>
                </mxCell>
                <mxCell id="18tmZ6bNWHhbC2IRPcdX-11" value="&lt;b&gt;&lt;font style=&quot;font-size: 18px&quot;&gt;5&lt;/font&gt;&lt;/b&gt;" style="ellipse;whiteSpace=wrap;html=1;aspect=fixed;strokeWidth=2;fontFamily=Tahoma;spacingBottom=4;spacingRight=2;strokeColor=#d3d3d3;" parent="p_-Jq0jlRIrJkgJ9OGro-18" vertex="1">
                    <mxGeometry x="690" y="10" width="40" height="40" as="geometry"/>
                </mxCell>
                <mxCell id="faQUMJwkZ8H9z8r8hcas-2" value="&lt;span style=&quot;background-color: rgb(255 , 255 , 255)&quot;&gt;/assets/:project_name&lt;/span&gt;" style="points=[[0,0,0],[0.25,0,0],[0.5,0,0],[0.75,0,0],[1,0,0],[0,1,0],[0.25,1,0],[0.5,1,0],[0.75,1,0],[1,1,0],[0,0.25,0],[0,0.5,0],[0,0.75,0],[1,0.25,0],[1,0.5,0],[1,0.75,0]];outlineConnect=0;fontColor=#232F3E;gradientColor=#F78E04;gradientDirection=north;fillColor=#D05C17;strokeColor=#ffffff;dashed=0;verticalLabelPosition=bottom;verticalAlign=top;align=center;html=1;fontSize=12;fontStyle=0;aspect=fixed;shape=mxgraph.aws4.resourceIcon;resIcon=mxgraph.aws4.lambda;" parent="gHm7drAUSJH3i6NlRPnt-1" vertex="1">
                    <mxGeometry x="240" y="251" width="78" height="78" as="geometry"/>
                </mxCell>
                <mxCell id="faQUMJwkZ8H9z8r8hcas-15" style="edgeStyle=orthogonalEdgeStyle;rounded=0;orthogonalLoop=1;jettySize=auto;html=1;entryX=0.5;entryY=1;entryDx=0;entryDy=0;entryPerimeter=0;fontSize=14;startArrow=none;startFill=0;endArrow=classic;endFill=1;strokeColor=#000000;" parent="gHm7drAUSJH3i6NlRPnt-1" source="faQUMJwkZ8H9z8r8hcas-1" target="faQUMJwkZ8H9z8r8hcas-2" edge="1">
                    <mxGeometry relative="1" as="geometry"/>
                </mxCell>
                <mxCell id="faQUMJwkZ8H9z8r8hcas-17" value="GET" style="edgeLabel;html=1;align=center;verticalAlign=middle;resizable=0;points=[];fontSize=14;" parent="faQUMJwkZ8H9z8r8hcas-15" vertex="1" connectable="0">
                    <mxGeometry x="0.2945" y="-1" relative="1" as="geometry">
                        <mxPoint as="offset"/>
                    </mxGeometry>
                </mxCell>
                <mxCell id="faQUMJwkZ8H9z8r8hcas-22" style="edgeStyle=orthogonalEdgeStyle;rounded=0;orthogonalLoop=1;jettySize=auto;html=1;entryX=0.5;entryY=0;entryDx=0;entryDy=0;entryPerimeter=0;fontSize=14;startArrow=none;startFill=0;endArrow=classic;endFill=1;strokeColor=#000000;" parent="gHm7drAUSJH3i6NlRPnt-1" source="faQUMJwkZ8H9z8r8hcas-19" target="faQUMJwkZ8H9z8r8hcas-2" edge="1">
                    <mxGeometry relative="1" as="geometry"/>
                </mxCell>
                <mxCell id="rg9a3JgK2hVkCHj6uQdE-0" value="&lt;font size=&quot;1&quot;&gt;&lt;b style=&quot;font-size: 16px&quot;&gt;React Application hosted on S3 (with Cloudfront) and communicating&lt;br&gt;with VPC Endpoint to API Gateway&lt;br&gt;&lt;/b&gt;&lt;/font&gt;" style="text;html=1;strokeColor=none;fillColor=none;align=center;verticalAlign=middle;whiteSpace=wrap;rounded=0;" parent="gHm7drAUSJH3i6NlRPnt-1" vertex="1">
                    <mxGeometry x="124" y="890" width="290" height="20" as="geometry"/>
                </mxCell>
                <mxCell id="rg9a3JgK2hVkCHj6uQdE-3" value="&lt;font size=&quot;1&quot;&gt;&lt;b style=&quot;font-size: 16px&quot;&gt;Fleet of Lambdas in VPC attached to API Gateway&lt;br&gt;&lt;/b&gt;&lt;/font&gt;" style="text;html=1;strokeColor=none;fillColor=none;align=center;verticalAlign=middle;whiteSpace=wrap;rounded=0;" parent="gHm7drAUSJH3i6NlRPnt-1" vertex="1">
                    <mxGeometry x="124" y="951" width="290" height="20" as="geometry"/>
                </mxCell>
                <mxCell id="rg9a3JgK2hVkCHj6uQdE-6" value="&lt;font size=&quot;1&quot;&gt;&lt;b style=&quot;font-size: 16px&quot;&gt;Storage and Database (DynamoDB) are accessible via VPC Endpoint&lt;br&gt;&lt;/b&gt;&lt;/font&gt;" style="text;html=1;strokeColor=none;fillColor=none;align=center;verticalAlign=middle;whiteSpace=wrap;rounded=0;" parent="gHm7drAUSJH3i6NlRPnt-1" vertex="1">
                    <mxGeometry x="124" y="1000" width="290" height="20" as="geometry"/>
                </mxCell>
                <mxCell id="rg9a3JgK2hVkCHj6uQdE-9" value="&lt;font size=&quot;1&quot;&gt;&lt;b style=&quot;font-size: 16px&quot;&gt;X-Ray for Tracing and Debugging&lt;br&gt;&lt;/b&gt;&lt;/font&gt;" style="text;html=1;strokeColor=none;fillColor=none;align=center;verticalAlign=middle;whiteSpace=wrap;rounded=0;" parent="gHm7drAUSJH3i6NlRPnt-1" vertex="1">
                    <mxGeometry x="124" y="1050" width="290" height="20" as="geometry"/>
                </mxCell>
                <mxCell id="rg9a3JgK2hVkCHj6uQdE-12" value="&lt;font size=&quot;1&quot;&gt;&lt;b style=&quot;font-size: 16px&quot;&gt;Each Lambda sends logs to Cloudwatch&lt;br&gt;&lt;/b&gt;&lt;/font&gt;" style="text;html=1;strokeColor=none;fillColor=none;align=center;verticalAlign=middle;whiteSpace=wrap;rounded=0;" parent="gHm7drAUSJH3i6NlRPnt-1" vertex="1">
                    <mxGeometry x="124" y="1100" width="290" height="20" as="geometry"/>
                </mxCell>
                <mxCell id="18tmZ6bNWHhbC2IRPcdX-3" value="&lt;font style=&quot;font-size: 18px&quot;&gt;&lt;b&gt;1&lt;/b&gt;&lt;/font&gt;" style="ellipse;whiteSpace=wrap;html=1;aspect=fixed;strokeWidth=2;fontFamily=Tahoma;spacingBottom=4;spacingRight=2;strokeColor=#d3d3d3;" parent="gHm7drAUSJH3i6NlRPnt-1" vertex="1">
                    <mxGeometry x="81" y="880" width="40" height="40" as="geometry"/>
                </mxCell>
                <mxCell id="18tmZ6bNWHhbC2IRPcdX-4" value="&lt;font style=&quot;font-size: 18px&quot;&gt;&lt;b&gt;2&lt;/b&gt;&lt;/font&gt;" style="ellipse;whiteSpace=wrap;html=1;aspect=fixed;strokeWidth=2;fontFamily=Tahoma;spacingBottom=4;spacingRight=2;strokeColor=#d3d3d3;" parent="gHm7drAUSJH3i6NlRPnt-1" vertex="1">
                    <mxGeometry x="81" y="931" width="40" height="40" as="geometry"/>
                </mxCell>
                <mxCell id="18tmZ6bNWHhbC2IRPcdX-6" value="&lt;font style=&quot;font-size: 18px&quot;&gt;&lt;b&gt;3&lt;/b&gt;&lt;/font&gt;" style="ellipse;whiteSpace=wrap;html=1;aspect=fixed;strokeWidth=2;fontFamily=Tahoma;spacingBottom=4;spacingRight=2;strokeColor=#d3d3d3;" parent="gHm7drAUSJH3i6NlRPnt-1" vertex="1">
                    <mxGeometry x="81" y="990" width="40" height="40" as="geometry"/>
                </mxCell>
                <mxCell id="18tmZ6bNWHhbC2IRPcdX-8" value="&lt;font style=&quot;font-size: 18px&quot;&gt;&lt;b&gt;4&lt;/b&gt;&lt;/font&gt;" style="ellipse;whiteSpace=wrap;html=1;aspect=fixed;strokeWidth=2;fontFamily=Tahoma;spacingBottom=4;spacingRight=2;strokeColor=#d3d3d3;" parent="gHm7drAUSJH3i6NlRPnt-1" vertex="1">
                    <mxGeometry x="81" y="1040" width="40" height="40" as="geometry"/>
                </mxCell>
                <mxCell id="18tmZ6bNWHhbC2IRPcdX-10" value="&lt;b&gt;&lt;font style=&quot;font-size: 18px&quot;&gt;5&lt;/font&gt;&lt;/b&gt;" style="ellipse;whiteSpace=wrap;html=1;aspect=fixed;strokeWidth=2;fontFamily=Tahoma;spacingBottom=4;spacingRight=2;strokeColor=#d3d3d3;" parent="gHm7drAUSJH3i6NlRPnt-1" vertex="1">
                    <mxGeometry x="81" y="1090" width="40" height="40" as="geometry"/>
                </mxCell>
            </root>
        </mxGraphModel>
    </diagram>
    <diagram id="cogB-JAur1HY-oK6gicI" name="Current Architecture - 11.11.21">
        <mxGraphModel dx="842" dy="924" grid="1" gridSize="10" guides="1" tooltips="1" connect="1" arrows="1" fold="1" page="1" pageScale="1" pageWidth="827" pageHeight="1169" math="0" shadow="0">
            <root>
                <mxCell id="0"/>
                <mxCell id="1" parent="0"/>
                <mxCell id="RTOvF7avYJ_DFFgPdW5I-11" value="" style="whiteSpace=wrap;html=1;aspect=fixed;" parent="1" vertex="1">
                    <mxGeometry x="171.23999999999998" y="205" width="380" height="380" as="geometry"/>
                </mxCell>
                <mxCell id="RTOvF7avYJ_DFFgPdW5I-4" value="" style="group" parent="1" vertex="1" connectable="0">
                    <mxGeometry x="316.24" y="2" width="90" height="110" as="geometry"/>
                </mxCell>
                <mxCell id="RTOvF7avYJ_DFFgPdW5I-1" value="" style="strokeWidth=2;html=1;shape=mxgraph.flowchart.database;whiteSpace=wrap;" parent="RTOvF7avYJ_DFFgPdW5I-4" vertex="1">
                    <mxGeometry width="90" height="110" as="geometry"/>
                </mxCell>
                <mxCell id="RTOvF7avYJ_DFFgPdW5I-3" value="MongoDB" style="shape=image;verticalLabelPosition=bottom;labelBackgroundColor=#ffffff;verticalAlign=top;aspect=fixed;imageAspect=0;image=https://www.kindpng.com/picc/m/385-3850482_mongodb-logo-png-transparent-png.png;" parent="RTOvF7avYJ_DFFgPdW5I-4" vertex="1">
                    <mxGeometry x="19.099999999999994" y="40" width="51.81" height="60" as="geometry"/>
                </mxCell>
                <mxCell id="RTOvF7avYJ_DFFgPdW5I-16" style="edgeStyle=orthogonalEdgeStyle;rounded=0;orthogonalLoop=1;jettySize=auto;html=1;" parent="1" source="RTOvF7avYJ_DFFgPdW5I-5" target="RTOvF7avYJ_DFFgPdW5I-13" edge="1">
                    <mxGeometry relative="1" as="geometry"/>
                </mxCell>
                <mxCell id="RTOvF7avYJ_DFFgPdW5I-5" value="ExpressJs Application" style="outlineConnect=0;dashed=0;verticalLabelPosition=bottom;verticalAlign=top;align=center;html=1;shape=mxgraph.aws3.android;fillColor=#8CC64F;gradientColor=none;" parent="1" vertex="1">
                    <mxGeometry x="307.15" y="410" width="122.5" height="140" as="geometry"/>
                </mxCell>
                <mxCell id="RTOvF7avYJ_DFFgPdW5I-7" value="K8" style="aspect=fixed;html=1;points=[];align=center;image;fontSize=12;image=img/lib/mscae/Kubernetes.svg;" parent="1" vertex="1">
                    <mxGeometry x="307.15" y="230" width="117.71" height="113" as="geometry"/>
                </mxCell>
                <mxCell id="RTOvF7avYJ_DFFgPdW5I-8" value="" style="shape=image;html=1;verticalAlign=top;verticalLabelPosition=bottom;labelBackgroundColor=#ffffff;imageAspect=0;aspect=fixed;image=https://cdn4.iconfinder.com/data/icons/logos-3/600/React.js_logo-128.png" parent="1" vertex="1">
                    <mxGeometry x="302.01" y="650" width="128" height="128" as="geometry"/>
                </mxCell>
                <mxCell id="RTOvF7avYJ_DFFgPdW5I-13" value="S3" style="points=[[0,0,0],[0.25,0,0],[0.5,0,0],[0.75,0,0],[1,0,0],[0,1,0],[0.25,1,0],[0.5,1,0],[0.75,1,0],[1,1,0],[0,0.25,0],[0,0.5,0],[0,0.75,0],[1,0.25,0],[1,0.5,0],[1,0.75,0]];outlineConnect=0;fontColor=#232F3E;gradientColor=#60A337;gradientDirection=north;fillColor=#277116;strokeColor=#ffffff;dashed=0;verticalLabelPosition=bottom;verticalAlign=top;align=center;html=1;fontSize=12;fontStyle=0;aspect=fixed;shape=mxgraph.aws4.resourceIcon;resIcon=mxgraph.aws4.s3;" parent="1" vertex="1">
                    <mxGeometry x="690" y="441" width="78" height="78" as="geometry"/>
                </mxCell>
                <mxCell id="RTOvF7avYJ_DFFgPdW5I-15" style="edgeStyle=orthogonalEdgeStyle;rounded=0;orthogonalLoop=1;jettySize=auto;html=1;entryX=0.5;entryY=1;entryDx=0;entryDy=0;entryPerimeter=0;" parent="1" source="RTOvF7avYJ_DFFgPdW5I-11" target="RTOvF7avYJ_DFFgPdW5I-1" edge="1">
                    <mxGeometry relative="1" as="geometry"/>
                </mxCell>
            </root>
        </mxGraphModel>
    </diagram>
    <diagram id="jw6W5M5aoeoKKcvL3V7w" name="When Only do Migration">
        <mxGraphModel dx="842" dy="924" grid="1" gridSize="10" guides="1" tooltips="1" connect="1" arrows="1" fold="1" page="1" pageScale="1" pageWidth="827" pageHeight="1169" math="0" shadow="0">
            <root>
                <mxCell id="NL9X6TxjVMW6MdQjmj9I-0"/>
                <mxCell id="NL9X6TxjVMW6MdQjmj9I-1" parent="NL9X6TxjVMW6MdQjmj9I-0"/>
                <mxCell id="NL9X6TxjVMW6MdQjmj9I-4" value="" style="rounded=0;whiteSpace=wrap;html=1;fillColor=#f8cecc;strokeColor=none;" parent="NL9X6TxjVMW6MdQjmj9I-1" vertex="1">
                    <mxGeometry x="160" y="140" width="290" height="320" as="geometry"/>
                </mxCell>
                <mxCell id="G3UTQlqjBTzwef1XgiMj-1" value="Region" style="shape=mxgraph.ibm.box;prType=region;fontStyle=0;verticalAlign=top;align=left;spacingLeft=32;spacingTop=4;fillColor=none;rounded=0;whiteSpace=wrap;html=1;strokeColor=#919191;strokeWidth=2;dashed=0;container=1;spacing=-4;collapsible=0;expand=0;recursiveResize=0;" parent="NL9X6TxjVMW6MdQjmj9I-1" vertex="1">
                    <mxGeometry x="70" y="70" width="970" height="910" as="geometry"/>
                </mxCell>
                <mxCell id="G3UTQlqjBTzwef1XgiMj-5" value="VPC" style="points=[[0,0],[0.25,0],[0.5,0],[0.75,0],[1,0],[1,0.25],[1,0.5],[1,0.75],[1,1],[0.75,1],[0.5,1],[0.25,1],[0,1],[0,0.75],[0,0.5],[0,0.25]];outlineConnect=0;gradientColor=none;html=1;whiteSpace=wrap;fontSize=12;fontStyle=0;shape=mxgraph.aws4.group;grIcon=mxgraph.aws4.group_vpc;strokeColor=#248814;fillColor=none;verticalAlign=top;align=left;spacingLeft=30;fontColor=#AAB7B8;dashed=0;" parent="G3UTQlqjBTzwef1XgiMj-1" vertex="1">
                    <mxGeometry x="37.5" y="40" width="702.5" height="580" as="geometry"/>
                </mxCell>
                <mxCell id="mjC69Vv9tdDvjNFu0eiQ-1" value="" style="rounded=0;whiteSpace=wrap;html=1;fillColor=#ffe6cc;strokeColor=none;" parent="G3UTQlqjBTzwef1XgiMj-1" vertex="1">
                    <mxGeometry x="90" y="420" width="600" height="180" as="geometry"/>
                </mxCell>
                <mxCell id="mjC69Vv9tdDvjNFu0eiQ-0" value="" style="rounded=0;whiteSpace=wrap;html=1;fillColor=#d5e8d4;strokeColor=none;" parent="G3UTQlqjBTzwef1XgiMj-1" vertex="1">
                    <mxGeometry x="420" y="70" width="270" height="320" as="geometry"/>
                </mxCell>
                <mxCell id="G3UTQlqjBTzwef1XgiMj-11" value="" style="rounded=0;whiteSpace=wrap;html=1;fillColor=#dae8fc;strokeColor=none;" parent="G3UTQlqjBTzwef1XgiMj-1" vertex="1">
                    <mxGeometry x="88.75" y="670" width="600" height="180" as="geometry"/>
                </mxCell>
                <mxCell id="G3UTQlqjBTzwef1XgiMj-2" value="" style="points=[[0,0,0],[0.25,0,0],[0.5,0,0],[0.75,0,0],[1,0,0],[0,1,0],[0.25,1,0],[0.5,1,0],[0.75,1,0],[1,1,0],[0,0.25,0],[0,0.5,0],[0,0.75,0],[1,0.25,0],[1,0.5,0],[1,0.75,0]];outlineConnect=0;fontColor=#232F3E;gradientColor=#60A337;gradientDirection=north;fillColor=#277116;strokeColor=#ffffff;dashed=0;verticalLabelPosition=bottom;verticalAlign=top;align=center;html=1;fontSize=12;fontStyle=0;aspect=fixed;shape=mxgraph.aws4.resourceIcon;resIcon=mxgraph.aws4.s3;" parent="G3UTQlqjBTzwef1XgiMj-1" vertex="1">
                    <mxGeometry x="167.5" y="80" width="130.5" height="130.5" as="geometry"/>
                </mxCell>
                <mxCell id="G3UTQlqjBTzwef1XgiMj-6" value="" style="points=[[0,0,0],[0.25,0,0],[0.5,0,0],[0.75,0,0],[1,0,0],[0,1,0],[0.25,1,0],[0.5,1,0],[0.75,1,0],[1,1,0],[0,0.25,0],[0,0.5,0],[0,0.75,0],[1,0.25,0],[1,0.5,0],[1,0.75,0]];outlineConnect=0;fontColor=#232F3E;gradientColor=#4D72F3;gradientDirection=north;fillColor=#3334B9;strokeColor=#ffffff;dashed=0;verticalLabelPosition=bottom;verticalAlign=top;align=center;html=1;fontSize=12;fontStyle=0;aspect=fixed;shape=mxgraph.aws4.resourceIcon;resIcon=mxgraph.aws4.documentdb_with_mongodb_compatibility;" parent="G3UTQlqjBTzwef1XgiMj-1" vertex="1">
                    <mxGeometry x="170" y="232" width="128" height="128" as="geometry"/>
                </mxCell>
                <mxCell id="G3UTQlqjBTzwef1XgiMj-4" value="" style="outlineConnect=0;dashed=0;verticalLabelPosition=bottom;verticalAlign=top;align=center;html=1;shape=mxgraph.aws3.application_load_balancer;fillColor=#F58534;gradientColor=none;" parent="G3UTQlqjBTzwef1XgiMj-1" vertex="1">
                    <mxGeometry x="326.46" y="445" width="124.58" height="130" as="geometry"/>
                </mxCell>
                <mxCell id="mjC69Vv9tdDvjNFu0eiQ-2" value="&lt;b&gt;&lt;font style=&quot;font-size: 14px&quot;&gt;1&lt;/font&gt;&lt;/b&gt;" style="ellipse;whiteSpace=wrap;html=1;aspect=fixed;strokeWidth=2;fontFamily=Tahoma;spacingBottom=4;spacingRight=2;strokeColor=#d3d3d3;" parent="G3UTQlqjBTzwef1XgiMj-1" vertex="1">
                    <mxGeometry x="100" y="684" width="44" height="44" as="geometry"/>
                </mxCell>
                <mxCell id="mjC69Vv9tdDvjNFu0eiQ-7" value="" style="group" parent="G3UTQlqjBTzwef1XgiMj-1" vertex="1" connectable="0">
                    <mxGeometry x="327.75" y="728" width="124.5" height="134.5" as="geometry"/>
                </mxCell>
                <mxCell id="mjC69Vv9tdDvjNFu0eiQ-6" value="" style="points=[[0,0,0],[0.25,0,0],[0.5,0,0],[0.75,0,0],[1,0,0],[0,1,0],[0.25,1,0],[0.5,1,0],[0.75,1,0],[1,1,0],[0,0.25,0],[0,0.5,0],[0,0.75,0],[1,0.25,0],[1,0.5,0],[1,0.75,0]];outlineConnect=0;fontColor=#232F3E;gradientColor=#60A337;gradientDirection=north;fillColor=#277116;strokeColor=#ffffff;dashed=0;verticalLabelPosition=bottom;verticalAlign=top;align=center;html=1;fontSize=12;fontStyle=0;aspect=fixed;shape=mxgraph.aws4.resourceIcon;resIcon=mxgraph.aws4.s3;" parent="mjC69Vv9tdDvjNFu0eiQ-7" vertex="1">
                    <mxGeometry width="124.5" height="124.5" as="geometry"/>
                </mxCell>
                <mxCell id="G3UTQlqjBTzwef1XgiMj-8" value="" style="shape=image;html=1;verticalAlign=top;verticalLabelPosition=bottom;labelBackgroundColor=#ffffff;imageAspect=0;aspect=fixed;image=https://cdn0.iconfinder.com/data/icons/logos-brands-in-colors/128/react_color-128.png" parent="mjC69Vv9tdDvjNFu0eiQ-7" vertex="1">
                    <mxGeometry x="33.422818791946305" y="64.09060402684564" width="53.47651006711409" height="53.47651006711409" as="geometry"/>
                </mxCell>
                <mxCell id="G3UTQlqjBTzwef1XgiMj-9" value="" style="points=[[0,0,0],[0.25,0,0],[0.5,0,0],[0.75,0,0],[1,0,0],[0,1,0],[0.25,1,0],[0.5,1,0],[0.75,1,0],[1,1,0],[0,0.25,0],[0,0.5,0],[0,0.75,0],[1,0.25,0],[1,0.5,0],[1,0.75,0]];outlineConnect=0;fontColor=#232F3E;gradientColor=#945DF2;gradientDirection=north;fillColor=#5A30B5;strokeColor=#ffffff;dashed=0;verticalLabelPosition=bottom;verticalAlign=top;align=center;html=1;fontSize=12;fontStyle=0;aspect=fixed;shape=mxgraph.aws4.resourceIcon;resIcon=mxgraph.aws4.route_53;" parent="G3UTQlqjBTzwef1XgiMj-1" vertex="1">
                    <mxGeometry x="351" y="592" width="78" height="78" as="geometry"/>
                </mxCell>
                <mxCell id="mjC69Vv9tdDvjNFu0eiQ-5" value="" style="points=[[0,0,0],[0.25,0,0],[0.5,0,0],[0.75,0,0],[1,0,0],[0,1,0],[0.25,1,0],[0.5,1,0],[0.75,1,0],[1,1,0],[0,0.25,0],[0,0.5,0],[0,0.75,0],[1,0.25,0],[1,0.5,0],[1,0.75,0]];outlineConnect=0;fontColor=#232F3E;gradientColor=#945DF2;gradientDirection=north;fillColor=#5A30B5;strokeColor=#ffffff;dashed=0;verticalLabelPosition=bottom;verticalAlign=top;align=center;html=1;fontSize=12;fontStyle=0;aspect=fixed;shape=mxgraph.aws4.resourceIcon;resIcon=mxgraph.aws4.cloudfront;" parent="G3UTQlqjBTzwef1XgiMj-1" vertex="1">
                    <mxGeometry x="420" y="684" width="78" height="78" as="geometry"/>
                </mxCell>
                <mxCell id="G3UTQlqjBTzwef1XgiMj-0" value="" style="outlineConnect=0;dashed=0;verticalLabelPosition=bottom;verticalAlign=top;align=center;html=1;shape=mxgraph.aws3.android;fillColor=#8CC64F;gradientColor=none;" parent="G3UTQlqjBTzwef1XgiMj-1" vertex="1">
                    <mxGeometry x="499.38" y="80" width="111.25" height="120" as="geometry"/>
                </mxCell>
                <mxCell id="NL9X6TxjVMW6MdQjmj9I-2" value="" style="points=[[0,0,0],[0.25,0,0],[0.5,0,0],[0.75,0,0],[1,0,0],[0,1,0],[0.25,1,0],[0.5,1,0],[0.75,1,0],[1,1,0],[0,0.25,0],[0,0.5,0],[0,0.75,0],[1,0.25,0],[1,0.5,0],[1,0.75,0]];outlineConnect=0;fontColor=#232F3E;gradientColor=#F78E04;gradientDirection=north;fillColor=#D05C17;strokeColor=#ffffff;dashed=0;verticalLabelPosition=bottom;verticalAlign=top;align=center;html=1;fontSize=12;fontStyle=0;aspect=fixed;shape=mxgraph.aws4.resourceIcon;resIcon=mxgraph.aws4.fargate;" parent="G3UTQlqjBTzwef1XgiMj-1" vertex="1">
                    <mxGeometry x="485.01" y="232" width="140" height="140" as="geometry"/>
                </mxCell>
                <mxCell id="mjC69Vv9tdDvjNFu0eiQ-12" value="&lt;font style=&quot;font-size: 16px&quot;&gt;&lt;b&gt;3&lt;/b&gt;&lt;/font&gt;" style="ellipse;whiteSpace=wrap;html=1;aspect=fixed;strokeWidth=2;fontFamily=Tahoma;spacingBottom=4;spacingRight=2;strokeColor=#d3d3d3;fontSize=14;" parent="G3UTQlqjBTzwef1XgiMj-1" vertex="1">
                    <mxGeometry x="420" y="70" width="40" height="40" as="geometry"/>
                </mxCell>
                <mxCell id="mjC69Vv9tdDvjNFu0eiQ-13" value="&lt;b&gt;&lt;font style=&quot;font-size: 16px&quot;&gt;4&lt;/font&gt;&lt;/b&gt;" style="ellipse;whiteSpace=wrap;html=1;aspect=fixed;strokeWidth=2;fontFamily=Tahoma;spacingBottom=4;spacingRight=2;strokeColor=#d3d3d3;fontSize=14;" parent="G3UTQlqjBTzwef1XgiMj-1" vertex="1">
                    <mxGeometry x="90" y="70" width="40" height="40" as="geometry"/>
                </mxCell>
                <mxCell id="Gir4RTL6EuHg6nd_FQbS-0" value="" style="points=[[0,0,0],[0.25,0,0],[0.5,0,0],[0.75,0,0],[1,0,0],[0,1,0],[0.25,1,0],[0.5,1,0],[0.75,1,0],[1,1,0],[0,0.25,0],[0,0.5,0],[0,0.75,0],[1,0.25,0],[1,0.5,0],[1,0.75,0]];points=[[0,0,0],[0.25,0,0],[0.5,0,0],[0.75,0,0],[1,0,0],[0,1,0],[0.25,1,0],[0.5,1,0],[0.75,1,0],[1,1,0],[0,0.25,0],[0,0.5,0],[0,0.75,0],[1,0.25,0],[1,0.5,0],[1,0.75,0]];outlineConnect=0;fontColor=#232F3E;gradientColor=#F34482;gradientDirection=north;fillColor=#BC1356;strokeColor=#ffffff;dashed=0;verticalLabelPosition=bottom;verticalAlign=top;align=center;html=1;fontSize=12;fontStyle=0;aspect=fixed;shape=mxgraph.aws4.resourceIcon;resIcon=mxgraph.aws4.cloudwatch_2;labelBackgroundColor=#ffffff;" parent="G3UTQlqjBTzwef1XgiMj-1" vertex="1">
                    <mxGeometry x="790" y="226" width="140" height="140" as="geometry"/>
                </mxCell>
                <mxCell id="Gir4RTL6EuHg6nd_FQbS-1" value="5" style="ellipse;whiteSpace=wrap;html=1;aspect=fixed;strokeWidth=2;fontFamily=Tahoma;spacingBottom=4;spacingRight=2;strokeColor=#d3d3d3;labelBackgroundColor=#ffffff;fontSize=16;fontStyle=1" parent="G3UTQlqjBTzwef1XgiMj-1" vertex="1">
                    <mxGeometry x="770" y="200" width="50" height="50" as="geometry"/>
                </mxCell>
                <mxCell id="mjC69Vv9tdDvjNFu0eiQ-3" value="&lt;font style=&quot;font-size: 15px&quot;&gt;&lt;b&gt;1&lt;/b&gt;&lt;/font&gt;" style="ellipse;whiteSpace=wrap;html=1;aspect=fixed;strokeWidth=2;fontFamily=Tahoma;spacingBottom=4;spacingRight=2;strokeColor=#d3d3d3;" parent="NL9X6TxjVMW6MdQjmj9I-1" vertex="1">
                    <mxGeometry x="1060" y="309" width="50" height="50" as="geometry"/>
                </mxCell>
                <mxCell id="mjC69Vv9tdDvjNFu0eiQ-4" value="&lt;font size=&quot;1&quot;&gt;&lt;b style=&quot;font-size: 16px&quot;&gt;React Application hosted on S3 (with Cloudfront) and communicating&lt;br&gt;with Route 53 for reaching the ALB&lt;br&gt;&lt;/b&gt;&lt;/font&gt;" style="text;html=1;strokeColor=none;fillColor=none;align=center;verticalAlign=middle;whiteSpace=wrap;rounded=0;" parent="NL9X6TxjVMW6MdQjmj9I-1" vertex="1">
                    <mxGeometry x="1110" y="324" width="290" height="20" as="geometry"/>
                </mxCell>
                <mxCell id="mjC69Vv9tdDvjNFu0eiQ-10" value="2" style="ellipse;whiteSpace=wrap;html=1;aspect=fixed;strokeWidth=2;fontFamily=Tahoma;spacingBottom=4;spacingRight=2;strokeColor=#d3d3d3;fontStyle=1;fontSize=14;" parent="NL9X6TxjVMW6MdQjmj9I-1" vertex="1">
                    <mxGeometry x="1060" y="369" width="50" height="50" as="geometry"/>
                </mxCell>
                <mxCell id="mjC69Vv9tdDvjNFu0eiQ-11" value="&lt;font style=&quot;font-size: 16px&quot;&gt;&lt;b&gt;Application Load Balancer for &quot;going into&quot; the ECS&lt;/b&gt;&lt;/font&gt;" style="text;html=1;strokeColor=none;fillColor=none;align=center;verticalAlign=middle;whiteSpace=wrap;rounded=0;fontSize=14;" parent="NL9X6TxjVMW6MdQjmj9I-1" vertex="1">
                    <mxGeometry x="1110" y="384" width="290" height="20" as="geometry"/>
                </mxCell>
                <mxCell id="mjC69Vv9tdDvjNFu0eiQ-9" value="&lt;font style=&quot;font-size: 14px&quot;&gt;2&lt;/font&gt;" style="ellipse;whiteSpace=wrap;html=1;aspect=fixed;strokeWidth=2;fontFamily=Tahoma;spacingBottom=4;spacingRight=2;strokeColor=#d3d3d3;fontStyle=1" parent="NL9X6TxjVMW6MdQjmj9I-1" vertex="1">
                    <mxGeometry x="170" y="500" width="39" height="39" as="geometry"/>
                </mxCell>
                <mxCell id="mjC69Vv9tdDvjNFu0eiQ-14" value="3" style="ellipse;whiteSpace=wrap;html=1;aspect=fixed;strokeWidth=2;fontFamily=Tahoma;spacingBottom=4;spacingRight=2;strokeColor=#d3d3d3;fontSize=14;fontStyle=1" parent="NL9X6TxjVMW6MdQjmj9I-1" vertex="1">
                    <mxGeometry x="1060" y="429" width="50" height="50" as="geometry"/>
                </mxCell>
                <mxCell id="mjC69Vv9tdDvjNFu0eiQ-15" value="&lt;b&gt;4&lt;/b&gt;" style="ellipse;whiteSpace=wrap;html=1;aspect=fixed;strokeWidth=2;fontFamily=Tahoma;spacingBottom=4;spacingRight=2;strokeColor=#d3d3d3;fontSize=14;" parent="NL9X6TxjVMW6MdQjmj9I-1" vertex="1">
                    <mxGeometry x="1060" y="489" width="50" height="50" as="geometry"/>
                </mxCell>
                <mxCell id="mjC69Vv9tdDvjNFu0eiQ-16" value="&lt;span&gt;&lt;font style=&quot;font-size: 16px&quot;&gt;ECS Cluster with Fargate Service and Express-Service as Task Definition&lt;/font&gt;&lt;/span&gt;" style="text;html=1;strokeColor=none;fillColor=none;align=center;verticalAlign=middle;whiteSpace=wrap;rounded=0;fontSize=14;fontStyle=1" parent="NL9X6TxjVMW6MdQjmj9I-1" vertex="1">
                    <mxGeometry x="1120" y="444" width="280" height="20" as="geometry"/>
                </mxCell>
                <mxCell id="mjC69Vv9tdDvjNFu0eiQ-17" value="&lt;span&gt;&lt;font style=&quot;font-size: 16px&quot;&gt;Storage and Database with S3 and DocumentDB&lt;/font&gt;&lt;/span&gt;" style="text;html=1;strokeColor=none;fillColor=none;align=center;verticalAlign=middle;whiteSpace=wrap;rounded=0;fontSize=14;fontStyle=1" parent="NL9X6TxjVMW6MdQjmj9I-1" vertex="1">
                    <mxGeometry x="1115" y="504" width="280" height="20" as="geometry"/>
                </mxCell>
                <mxCell id="Gir4RTL6EuHg6nd_FQbS-2" value="5" style="ellipse;whiteSpace=wrap;html=1;aspect=fixed;strokeWidth=2;fontFamily=Tahoma;spacingBottom=4;spacingRight=2;strokeColor=#d3d3d3;labelBackgroundColor=#ffffff;fontSize=16;fontStyle=1" parent="NL9X6TxjVMW6MdQjmj9I-1" vertex="1">
                    <mxGeometry x="1060" y="550" width="50" height="50" as="geometry"/>
                </mxCell>
                <mxCell id="Gir4RTL6EuHg6nd_FQbS-3" value="&lt;span&gt;&lt;font style=&quot;font-size: 16px&quot;&gt;Cloudwatch for Capturing Logs&lt;/font&gt;&lt;/span&gt;" style="text;html=1;strokeColor=none;fillColor=none;align=center;verticalAlign=middle;whiteSpace=wrap;rounded=0;fontSize=14;fontStyle=1" parent="NL9X6TxjVMW6MdQjmj9I-1" vertex="1">
                    <mxGeometry x="1120" y="565" width="280" height="20" as="geometry"/>
                </mxCell>
            </root>
        </mxGraphModel>
    </diagram>
</mxfile>